<?xml version="1.0" encoding="utf-8"?>
<!-- Generator: Adobe Illustrator 24.1.1, SVG Export Plug-In . SVG Version: 6.00 Build 0)  -->
<svg version="1.1" id="Layer_1" xmlns="http://www.w3.org/2000/svg" xmlns:xlink="http://www.w3.org/1999/xlink" x="0px" y="0px"
	 viewBox="0 0 512 512" style="enable-background:new 0 0 512 512;" xml:space="preserve">
<g id="XMLID_1_">
	<path id="XMLID_3_" d="M505.3,418.4L225.8,154.7c0,0,10.2-66.2,29.8-82c19.6-15.8,55-36.3,55-36.3V0c-36.3,0-67.1,9.3-110.9,31.7
		c-43.8,21.4-76.4,55-84.8,63.4c-8.4,8.4-20.5,22.4-28,32.6c-7.5,11.2-6.5,23.3-6.5,23.3L58,170.5l-4.7-4.7c-2.8-2.8-7.5-2.8-9.3,0
		L2.1,207.8c-2.8,2.8-2.8,7.5,0,9.3l68,68c2.8,2.8,7.5,2.8,9.3,0l41.9-41.9c2.8-2.8,2.8-7.5,0-9.3l-12.1-12.1l16.8-16.8
		c7.5-4.7,28.9-10.2,44.7-5.6l246,305.6c9.3,9.3,23.3,9.3,32.6,0l53.1-54C514.6,441.7,514.6,424.9,505.3,418.4L505.3,418.4z"/>
</g>
</svg>
